<?xml version="1.0" encoding="utf-8"?>
<!-- Generator: Adobe Illustrator 24.0.1, SVG Export Plug-In . SVG Version: 6.00 Build 0)  -->
<svg version="1.1" id="Layer_1" xmlns="http://www.w3.org/2000/svg" xmlns:xlink="http://www.w3.org/1999/xlink" x="0px" y="0px"
	 viewBox="0 0 102 102" style="enable-background:new 0 0 102 102;" xml:space="preserve">
<style type="text/css">
	.st0{fill:#2B5597;}
	.st1{fill:#FFFFFF;}
</style>
<g>
	<rect class="st0" width="102" height="102"/>
	<g>
		<path class="st1" d="M53.35,70.58H28.23V35.92c0-6.22-1.22-11.08-3.63-14.43c-2-2.78-4.81-4.38-7.72-4.38
			c-0.65,0-1.17,0.53-1.17,1.18s0.53,1.18,1.17,1.18c4.48,0,9,5.09,9,16.46v35.77c0,0.1,0.02,0.19,0.04,0.29
			c0.7,7.25,6.78,12.93,14.18,12.93c7.53,0,13.7-5.87,14.22-13.31C54.36,71.03,53.91,70.58,53.35,70.58z"/>
		<g>
			<g>
				<path class="st1" d="M43.87,46.41c0,1.74-1.39,2.7-3.69,2.7c-2.76,0-3.88-1.23-4.02-2.91h1.1c0.07,1.36,1.38,1.91,3,1.91
					c1.58,0,2.56-0.55,2.56-1.65c0-2.29-6.37-1.13-6.37-4.34c0-1.53,1.17-2.59,3.5-2.59c2.48,0,3.6,1.27,3.69,2.67h-1.08
					c-0.11-0.93-0.9-1.68-2.6-1.68c-2.11,0-2.48,0.96-2.48,1.58C37.47,44.28,43.87,43.15,43.87,46.41z"/>
				<path class="st1" d="M47.26,49H46.2v-9.36h1.06V49z"/>
				<path class="st1" d="M59.31,39.64V49h-1.06v-7.75l-3.45,4.45l-3.5-4.45V49h-1.05v-9.36h1.22l3.34,4.44l3.28-4.44H59.31z"/>
				<path class="st1" d="M63.34,49h-1.06v-9.36h4.19c1.98,0,3.21,1.17,3.21,3.01c0,1.85-1.22,3.01-3.21,3.01h-3.14V49z M63.34,40.65
					v4.03h3.07c1.46,0,2.22-0.76,2.22-2.02c0-1.24-0.76-2.01-2.22-2.01H63.34z"/>
				<path class="st1" d="M72.88,39.64v8.34h5.08V49h-6.14v-9.36H72.88z"/>
				<path class="st1" d="M82.39,49h-1.06v-3.7l-3.91-5.66h1.28l3.15,4.55l3.15-4.55h1.28l-3.9,5.66V49z"/>
			</g>
			<g>
				<path class="st1" d="M43.77,58.84h1.11c-0.59,1.71-2.11,2.91-4.22,2.91c-2.8,0-4.5-2.13-4.5-4.79c0-2.66,1.7-4.79,4.5-4.79
					c2.11,0,3.63,1.2,4.22,2.91h-1.11c-0.48-1.15-1.49-1.88-3.03-1.88c-2.27,0-3.53,1.65-3.53,3.76c0,2.11,1.27,3.76,3.53,3.76
					C42.28,60.72,43.29,59.98,43.77,58.84z"/>
				<path class="st1" d="M55.96,56.96c0,2.66-1.9,4.79-4.73,4.79c-2.83,0-4.73-2.13-4.73-4.79c0-2.66,1.9-4.79,4.73-4.79
					C54.06,52.16,55.96,54.3,55.96,56.96z M54.9,56.96c0-2.11-1.41-3.76-3.67-3.76s-3.67,1.65-3.67,3.76c0,2.11,1.41,3.76,3.67,3.76
					S54.9,59.06,54.9,56.96z"/>
				<path class="st1" d="M67.21,56.96c0,2.66-1.9,4.79-4.73,4.79c-2.83,0-4.73-2.13-4.73-4.79c0-2.66,1.9-4.79,4.73-4.79
					C65.31,52.16,67.21,54.3,67.21,56.96z M66.16,56.96c0-2.11-1.41-3.76-3.67-3.76s-3.67,1.65-3.67,3.76
					c0,2.11,1.41,3.76,3.67,3.76S66.16,59.06,66.16,56.96z"/>
				<path class="st1" d="M73.36,56.04l4.19,5.6h-1.32l-3.64-4.88l-1.93,1.81v3.07H69.6v-9.36h1.06v4.88l5.18-4.88h1.49L73.36,56.04z
					"/>
			</g>
		</g>
	</g>
</g>
</svg>
