<?xml version="1.0" encoding="utf-8"?>
<!-- Generator: Adobe Illustrator 24.0.1, SVG Export Plug-In . SVG Version: 6.00 Build 0)  -->
<svg version="1.1" id="Layer_1" xmlns="http://www.w3.org/2000/svg" xmlns:xlink="http://www.w3.org/1999/xlink" x="0px" y="0px"
	 viewBox="0 0 300 92" style="enable-background:new 0 0 300 92;" xml:space="preserve">
<style type="text/css">
	.st0{fill:#FFFFFF;}
</style>
<g>
	<g>
		<g>
			<path class="st0" d="M90.66,33.68H69.64c-1.61,0-2.91,1.3-2.91,2.91s1.3,2.91,2.91,2.91h21.01c1.61,0,2.91-1.3,2.91-2.91
				S92.27,33.68,90.66,33.68z"/>
			<path class="st0" d="M69.64,45.73c-1.61,0-2.91,1.3-2.91,2.91c0,1.61,1.3,2.91,2.91,2.91h15.37c1.61,0,2.91-1.3,2.91-2.91
				c0-1.61-1.3-2.91-2.91-2.91H69.64z"/>
			<path class="st0" d="M97.72,21.63H84.53C76.43,8.77,62.11,0.22,45.78,0.22C20.5,0.22,0,20.71,0,46s20.5,45.78,45.78,45.78
				c19.13,0,35.51-11.74,42.36-28.4h-9.55c0.02,0.22,0.07,0.44,0.07,0.67c0,3.42-2.78,6.19-6.21,6.19c-3.43,0-6.21-2.77-6.21-6.19
				c0-0.23,0.04-0.45,0.07-0.67H43.17c0.02,0.22,0.07,0.44,0.07,0.67c0,3.43-2.79,6.21-6.24,6.21c-3.45,0-6.24-2.78-6.24-6.21
				c0-0.23,0.04-0.45,0.07-0.67h-0.09h-2.69c-1.48,0-2.69-1.2-2.69-2.69v-9.43c0-1.97,1.18-2.97,2.69-2.97h1.34l4.58-8.48
				c0.5-0.73,1.33-1.17,2.22-1.17l9.33,0v-9.03c0-1.19,0.97-2.16,2.16-2.16c0,0,21.93,0.01,21.97,0.01h28.08
				c1.61,0,2.91-1.3,2.91-2.91C100.63,22.93,99.33,21.63,97.72,21.63z M27.2,27.76l-2.62,2.55c-0.09,0.09-0.14,0.22-0.11,0.35
				l0.62,3.6c0.06,0.32-0.29,0.57-0.58,0.42l-3.24-1.7c-0.12-0.06-0.25-0.06-0.37,0l-3.24,1.7c-0.29,0.15-0.63-0.09-0.58-0.42
				l0.62-3.6c0.02-0.13-0.02-0.26-0.11-0.35l-2.62-2.55c-0.24-0.23-0.11-0.63,0.22-0.68l3.62-0.53c0.13-0.02,0.24-0.1,0.3-0.22
				l1.62-3.28c0.15-0.3,0.57-0.3,0.71,0l1.62,3.28c0.06,0.12,0.17,0.2,0.3,0.22l3.62,0.53C27.31,27.13,27.44,27.53,27.2,27.76z
				 M39.89,15.94l-2.06,2c-0.09,0.09-0.14,0.22-0.11,0.35l0.49,2.83c0.06,0.32-0.29,0.57-0.58,0.42l-2.54-1.34
				c-0.12-0.06-0.25-0.06-0.37,0l-2.54,1.34c-0.29,0.15-0.63-0.09-0.58-0.42l0.49-2.83c0.02-0.13-0.02-0.26-0.11-0.35l-2.06-2
				c-0.24-0.23-0.11-0.63,0.22-0.68l2.84-0.41c0.13-0.02,0.24-0.1,0.3-0.22l1.27-2.57c0.15-0.3,0.57-0.3,0.71,0l1.27,2.57
				c0.06,0.12,0.17,0.2,0.3,0.22l2.84,0.41C40,15.31,40.13,15.71,39.89,15.94z"/>
		</g>
	</g>
	<g>
		<g>
			<polygon class="st0" points="158.88,57.46 187.05,57.46 184.49,71.95 191.99,71.95 195.68,51.01 160.02,51.01 			"/>
			<path class="st0" d="M194.16,18.12l-1.22,6.92h-9.12l1.02-5.77h-7.21l-3.74,21.24h-12.36l0.87-4.92h2.46
				c1.87,0,3.65-0.19,5.28-0.56c1.66-0.37,2.71-0.66,3.2-0.89c0.46-0.21,0.84-0.4,1.11-0.57l0.14-0.09l1.07-6.09l-1.56,0.67
				c-0.6,0.26-1.67,0.52-3.18,0.78c-1.52,0.26-3.23,0.4-5.09,0.4h-2.33l1.76-9.98h-7.15l-3.74,21.19c-0.18,0.99,0.03,1.85,0.6,2.54
				l2.38,2.96c0.52,0.58,1.21,0.87,2.05,0.87h20.57l1.09-6.18h9.13l-1.24,7.04h7.32l5.22-29.59H194.16z M191.83,31.32l-0.54,3.08
				h-9.12l0.54-3.08H191.83z"/>
		</g>
		<g>
			<path class="st0" d="M128.86,52.5c-1.26-1.17-2.24-2.16-2.9-2.96c-0.92-1.17-1.85-2.71-2.77-4.6c-0.98-2.05-1.47-4.68-1.45-7.8
				c0.02-2.94,0.26-5.67,0.69-8.13l1.61-9.15h-7.5l-1.59,9.02c-0.46,2.59-1.03,4.98-1.71,7.11c-0.69,2.19-1.86,4.6-3.49,7.18
				c-1.41,2.2-3.19,4.41-5.28,6.58c-1.57,1.62-3.56,3.3-5.91,4.98l-0.4,0.29l5.65,4.34l0.22-0.17c1.35-1.05,2.57-2.08,3.65-3.08
				c1.08-1,2.25-2.22,3.46-3.61c1.29-1.48,2.29-2.7,2.98-3.6c0.51-0.67,0.99-1.41,1.43-2.19c0.24,0.77,0.49,1.46,0.76,2.06
				c0.36,0.82,0.85,1.75,1.45,2.75c0.78,1.33,1.61,2.47,2.45,3.41c0.87,0.97,1.78,1.91,2.71,2.79l0.24,0.23l6-5.16L128.86,52.5z"/>
			<polygon class="st0" points="146.76,18.12 144.93,28.51 141.92,28.51 143.65,18.7 136.27,18.7 127.29,69.64 134.67,69.64 
				140.71,35.36 143.72,35.36 137.47,70.79 144.85,70.79 154.14,18.12 			"/>
		</g>
		<g>
			<path class="st0" d="M222.46,20.43l-5.53,31.34h-9.3l1.84-10.41c1.68-0.05,3.28-0.25,4.78-0.58c1.61-0.36,2.61-0.64,3.08-0.87
				c0.44-0.21,0.8-0.41,1.04-0.58l0.13-0.09l1.07-6.09l-1.51,0.7c-0.56,0.26-1.58,0.52-3.03,0.78c-1.34,0.24-2.84,0.38-4.44,0.4
				l2.57-14.6h-7.15l-5.52,31.3c-0.18,0.99,0.03,1.85,0.6,2.54l2.37,2.95c0.48,0.59,1.17,0.88,2.05,0.88h17.45l6.64-37.67H222.46z"
				/>
			<polygon class="st0" points="244.51,18.12 242.68,28.51 239.67,28.51 241.4,18.7 234.02,18.7 225.04,69.64 232.42,69.64 
				238.46,35.36 241.47,35.36 235.22,70.79 242.61,70.79 247.04,45.62 251.89,18.12 			"/>
		</g>
		<g>
			<path class="st0" d="M257.03,39.62c0.92-0.19,2.48-0.58,4.64-1.16c2.17-0.58,4.42-1.46,6.68-2.63c1.83-0.97,3.67-2.1,5.48-3.37
				c1.41-1.01,2.49-1.94,3.2-2.77c0.44,0.83,1.18,1.75,2.22,2.74c1.29,1.2,2.76,2.34,4.36,3.38c1.84,1.21,3.76,2.09,5.7,2.65
				c1.98,0.58,3.41,0.97,4.26,1.16l0.19,0.04l5.32-5.2l-0.7-0.13c-1.25-0.23-2.91-0.75-4.94-1.54c-2.04-0.8-4.07-1.85-6.03-3.14
				c-1.72-1.19-3-2.58-3.8-4.13c-0.93-1.84-1.28-3.47-1.03-4.85l0.45-2.56h-8.02l-0.43,2.44c-0.24,1.39-1.18,3.04-2.78,4.91
				c-1.33,1.57-3.12,2.98-5.32,4.18c-2.39,1.29-4.79,2.35-7.14,3.15c-2.33,0.79-4.19,1.31-5.53,1.54l-0.56,0.1l3.51,5.23
				L257.03,39.62z"/>
			<path class="st0" d="M286.57,53.47c-2.93-2.02-7.42-3.04-13.33-3.04c-5.9,0-10.72,1.02-14.32,3.02c-3.65,2.03-5.78,4.69-6.35,7.9
				c-0.59,3.33,0.6,6.06,3.52,8.1c2.93,2.04,7.44,3.07,13.42,3.07c6,0,10.86-1.03,14.45-3.05c3.58-2.01,5.7-4.7,6.28-7.99
				C290.8,58.23,289.57,55.53,286.57,53.47z M282.88,61.3c-0.31,1.76-1.52,2.99-3.71,3.76c-2.53,0.87-5.47,1.31-8.74,1.31
				c-3.27,0-6.03-0.44-8.2-1.3c-1.85-0.74-2.6-1.93-2.29-3.64c0.26-1.51,1.53-2.68,3.77-3.47c2.49-0.87,5.37-1.3,8.57-1.3
				c3.19,0,5.93,0.44,8.14,1.3C282.33,58.73,283.14,59.83,282.88,61.3z"/>
			<polygon class="st0" points="278.36,42.07 279.43,36.01 272.33,36.01 271.26,42.07 250.2,42.07 249.05,48.57 298.85,48.57 
				300,42.07 			"/>
		</g>
	</g>
</g>
</svg>
