<?xml version="1.0" encoding="utf-8"?>
<!-- Generator: Adobe Illustrator 24.0.1, SVG Export Plug-In . SVG Version: 6.00 Build 0)  -->
<svg version="1.1" id="Layer_1" xmlns="http://www.w3.org/2000/svg" xmlns:xlink="http://www.w3.org/1999/xlink" x="0px" y="0px"
	 viewBox="0 0 94 104" style="enable-background:new 0 0 94 104;" xml:space="preserve">
<style type="text/css">
	.st0{fill:#FFFFFF;}
</style>
<g>
	<g>
		<path class="st0" d="M0.38,37.55h21.2v5.78H6.85v5.82H19.5v5.78H6.85v11.3H0.38V37.55z"/>
		<path class="st0" d="M22.48,47.29h4.43l0.87,3.3c1.17-2.65,2.91-3.82,5.35-3.82c0.48,0,0.95,0.04,1.39,0.13v6.26
			c-0.56-0.09-1.09-0.13-1.52-0.13c-2.26,0-3.73,1.04-4.43,3.09v10.12h-6.08V47.29z"/>
		<path class="st0" d="M47.83,61.76c2.26,0,4.17-0.61,6.17-2.13v5.3c-2.09,1.22-4.13,1.78-6.82,1.78c-7,0-11.26-3.78-11.26-10.12
			c0-6,3.87-9.86,9.86-9.86c5.78,0,9.3,3.52,9.3,8.99c0,0.87-0.09,1.74-0.26,2.91H42.35C42.96,60.68,44.83,61.76,47.83,61.76z
			 M42.26,54.68h7.3c-0.44-2-1.69-3-3.65-3C43.96,51.68,42.7,52.73,42.26,54.68z"/>
		<path class="st0" d="M57.01,65.15v-5.17c1.82,1.35,4.3,2.09,7.26,2.09c2.04,0,2.91-0.35,2.91-1.31c0-0.74-0.61-1.09-2.35-1.39
			l-2.43-0.44c-3.95-0.69-5.43-2.69-5.43-5.73c0-4.26,2.87-6.43,8.39-6.43c2.61,0,5,0.48,6.48,1.39v5.13
			c-1.83-1.17-4-1.83-6.39-1.83c-1.87,0-2.61,0.39-2.61,1.26c0,0.78,0.65,1.04,2.35,1.35l2.43,0.44c3.61,0.65,5.43,2.43,5.43,5.86
			c0,4.26-2.87,6.39-8.73,6.39C61.31,66.75,58.66,66.19,57.01,65.15z"/>
		<path class="st0" d="M76.09,35.38h6.08v13.69c1.35-1.56,3.04-2.3,5.26-2.3c4.13,0,6.39,2.61,6.39,7.56v11.9h-6.08V55.28
			c0-1.91-0.78-2.87-2.39-2.87c-1.44,0-2.48,0.83-3.17,2.35v11.47h-6.08V35.38z"/>
	</g>
	<g>
		<path class="st0" d="M0.38,74.89h2.48l12.21,19.69l12.21-19.69h2.52v28.68h-2.52V79.36L15.81,98.01h-1.48L2.81,79.36v24.21H0.38
			V74.89z"/>
		<path class="st0" d="M32.96,98.26c0-3.74,2.69-6,7.3-6c2.09,0,4.35,0.48,6.39,1.48v-1.3c0-3.91-1.83-5.78-5.65-5.78
			c-2.57,0-4.83,0.87-6.44,2.52v-2.52c1.61-1.44,4-2.17,6.74-2.17c5.09,0,7.78,2.61,7.78,7.65v11.44h-1.91l-0.35-2.96
			c-1.78,2.3-4.26,3.48-7.22,3.48C35.48,104.09,32.96,101.87,32.96,98.26z M46.66,98.05v-2.22c-1.78-0.91-3.96-1.43-6.09-1.43
			c-3.39,0-5.17,1.3-5.17,3.78c0,2.35,1.65,3.74,4.61,3.74C42.83,101.92,44.92,100.66,46.66,98.05z"/>
		<path class="st0" d="M53.56,72.7h2.43v30.87h-2.43V72.7z"/>
		<path class="st0" d="M60.46,72.7h2.43v30.87h-2.43V72.7z"/>
		<path class="st0" d="M66.01,101.61c0-1.13,0.83-1.96,1.96-1.96s1.96,0.82,1.96,1.96s-0.82,1.96-1.96,1.96
			S66.01,102.74,66.01,101.61z"/>
	</g>
	<g>
		<path class="st0" d="M13.33,17.61h4.8v4.92c-1.12,0.61-2.21,0.89-3.73,0.89c-4.77,0-7.17-3.65-7.17-8.85c0-5.17,2.32-8.7,7.09-8.7
			c2.85,0,5.29,1.04,7.37,2.36l0.92-5.97c-2.21-1.25-5.05-2.04-8.46-2.04c-8.54,0-13.79,5.8-13.79,14.38
			c0,8.54,4.85,14.31,13.63,14.31c3.81,0,7.22-1.04,10.1-2.93V12.52H12.52L13.33,17.61z"/>
	</g>
	<g>
		<path class="st0" d="M38.39,11.32c-3.5-1.34-4.28-2.03-4.28-3.46c0-1.3,1.02-2.18,3.14-2.18c2.15,0,4.79,0.8,7.31,2.27l1.06-5.85
			c-2.44-1.18-4.8-1.87-8.46-1.87c-5.36,0-9.59,2.88-9.59,8.29c0,4.63,2.44,6.47,8.05,8.62c3.95,1.51,4.76,2.24,4.76,3.82
			c0,1.67-1.38,2.52-3.38,2.52c-2.8,0-6.01-1.06-8.9-2.6l-1.01,5.93c2.85,1.3,6.02,2.11,9.79,2.11c5.57,0,10.04-2.68,10.04-8.78
			C46.92,15.67,44.49,13.56,38.39,11.32z"/>
	</g>
</g>
</svg>
