<?xml version="1.0" encoding="utf-8"?>
<!-- Generator: Adobe Illustrator 24.0.1, SVG Export Plug-In . SVG Version: 6.00 Build 0)  -->
<svg version="1.1" id="Layer_1" xmlns="http://www.w3.org/2000/svg" xmlns:xlink="http://www.w3.org/1999/xlink" x="0px" y="0px"
	 viewBox="0 0 40 40" style="enable-background:new 0 0 40 40;" xml:space="preserve">
<style type="text/css">
	.st0{fill:none;stroke:#FFFFFF;stroke-width:2.2;stroke-linecap:round;stroke-miterlimit:10;}
	.st1{fill:#FFFFFF;}
	.st2{font-family:'NotoSansCJKkr-Regular-KSCpc-EUC-H';}
	.st3{font-size:16px;}
	.st4{letter-spacing:-1;}
</style>
<g>
	<path class="st0" d="M18.46,35.06c-7.79-0.23-17-6.78-17-17c0-9.39,7.61-17,17-17s17,7.61,17,17"/>
	<text transform="matrix(1 0 0 1 4.1408 24.3981)" class="st1 st2 st3 st4">당일</text>
	<g>
		<rect x="27.94" y="34.17" class="st1" width="12" height="2"/>
		<polygon class="st1" points="30.94,35.17 30.94,38.94 28.44,37.06 25.94,35.17 28.44,33.29 30.94,31.4 		"/>
	</g>
	<g>
		
			<rect x="25.94" y="28.17" transform="matrix(-1 -4.486823e-11 4.486823e-11 -1 63.8782 58.3466)" class="st1" width="12" height="2"/>
		<polygon class="st1" points="34.94,29.17 34.94,32.94 37.44,31.06 39.94,29.17 37.44,27.29 34.94,25.4 		"/>
	</g>
</g>
</svg>
