<svg width="40" height="40" viewBox="0 0 40 40" fill="none" xmlns="http://www.w3.org/2000/svg">
<circle cx="20" cy="20" r="20" fill="#C4C4C4"/>
<circle cx="20" cy="20" r="20" fill="url(#paint0_linear)"/>
<path fill-rule="evenodd" clip-rule="evenodd" d="M28.3192 11.6779C28.8225 12.1804 29.2152 12.7822 29.4722 13.4448C29.7679 14.2315 29.9258 15.0632 29.9391 15.9034C30 16.9639 30 17.3083 30 20.0169C30 22.7254 29.9864 23.0632 29.9391 24.1304C29.922 24.9592 29.7641 25.7791 29.4722 26.5552C29.2152 27.2178 28.8225 27.8196 28.3192 28.3221C27.8159 28.8245 27.2131 29.2166 26.5494 29.4732C25.7719 29.7645 24.9506 29.9221 24.1204 29.9392C23.0582 30 22.7131 30 20 30C17.2868 30 16.9485 29.9865 15.8795 29.9392C15.0473 29.9113 14.226 29.7423 13.4506 29.4394C12.7868 29.1828 12.184 28.7907 11.6807 28.2883C11.1774 27.7858 10.7847 27.1841 10.5277 26.5214C10.2358 25.7453 10.078 24.9254 10.0609 24.0966C9.99997 23.0361 9.99997 22.6917 9.99997 19.9831C9.99997 17.2746 10.0135 16.9368 10.0609 15.8696C10.078 15.0408 10.2358 14.2209 10.5277 13.4448C10.7847 12.7822 11.1774 12.1804 11.6807 11.6779C12.184 11.1755 12.7868 10.7834 13.4506 10.5268C14.228 10.2355 15.0493 10.0779 15.8795 10.0608C16.9418 10 17.2868 10 20 10C22.7131 10 23.0514 10.0135 24.1204 10.0608C24.9506 10.0779 25.7719 10.2355 26.5494 10.5268C27.2131 10.7834 27.8159 11.1755 28.3192 11.6779ZM27.774 25.8865C27.9965 25.2875 28.1133 24.6544 28.1191 24.0155H28.1326C28.1799 22.9551 28.1799 22.6646 28.1799 19.9628C28.1799 17.2649 28.1665 16.9647 28.1193 15.9146L28.1191 15.9102C28.1109 15.2781 27.9942 14.6521 27.774 14.0594C27.6074 13.6281 27.3522 13.2363 27.0248 12.9094C26.6973 12.5825 26.3049 12.3277 25.8728 12.1614C25.2791 11.9416 24.6521 11.8251 24.0189 11.817C22.9431 11.7562 22.6657 11.7562 19.9594 11.7562C17.2569 11.7562 16.9562 11.7696 15.9043 11.8168L15.8998 11.817C15.2667 11.8251 14.6396 11.9416 14.046 12.1614C13.6124 12.3265 13.2185 12.5808 12.8898 12.9078C12.561 13.2348 12.3049 13.6272 12.138 14.0594C11.9155 14.6585 11.7987 15.2915 11.7929 15.9304C11.732 17.0044 11.732 17.2813 11.732 19.9831C11.732 22.681 11.7455 22.9812 11.7927 24.0313L11.7929 24.0358C11.8011 24.6679 11.9178 25.2939 12.138 25.8865C12.3049 26.3188 12.561 26.7111 12.8898 27.0381C13.2185 27.3651 13.6124 27.6194 14.046 27.7845C14.6396 28.0044 15.2667 28.1209 15.8998 28.129C16.9756 28.1898 17.253 28.1898 19.9594 28.1898C22.6619 28.1898 22.9626 28.1763 24.0144 28.1292L24.0189 28.129C24.6521 28.1209 25.2791 28.0044 25.8728 27.7845C26.3049 27.6183 26.6973 27.3635 27.0248 27.0366C27.3522 26.7097 27.6074 26.3179 27.774 25.8865ZM25.3315 15.8561C25.9929 15.8561 26.5291 15.3209 26.5291 14.6606C26.5291 14.0003 25.9929 13.465 25.3315 13.465C24.6701 13.465 24.1339 14.0003 24.1339 14.6606C24.1339 15.3209 24.6701 15.8561 25.3315 15.8561ZM19.9932 14.8497C18.9776 14.8497 17.9847 15.1504 17.1402 15.7137C16.2957 16.277 15.6375 17.0777 15.2488 18.0145C14.8601 18.9512 14.7584 19.982 14.9566 20.9765C15.1547 21.971 15.6438 22.8845 16.362 23.6014C17.0802 24.3184 17.9952 24.8067 18.9914 25.0045C19.9875 25.2023 21.0201 25.1008 21.9584 24.7128C22.8968 24.3247 23.6988 23.6676 24.2631 22.8246C24.8274 21.9815 25.1285 20.9903 25.1285 19.9764C25.1285 19.3031 24.9957 18.6365 24.7376 18.0145C24.4796 17.3925 24.1013 16.8273 23.6244 16.3513C23.1476 15.8752 22.5815 15.4976 21.9584 15.24C21.3354 14.9823 20.6676 14.8497 19.9932 14.8497ZM19.9932 23.3063C19.3335 23.3063 18.6886 23.111 18.1401 22.7451C17.5915 22.3792 17.164 21.8591 16.9115 21.2507C16.6591 20.6422 16.593 19.9727 16.7217 19.3267C16.8504 18.6808 17.1681 18.0874 17.6346 17.6217C18.1011 17.156 18.6954 16.8389 19.3425 16.7104C19.9895 16.5819 20.6602 16.6478 21.2697 16.8999C21.8792 17.1519 22.4001 17.5787 22.7667 18.1263C23.1332 18.6739 23.3288 19.3178 23.3288 19.9764C23.3288 20.8595 22.9774 21.7065 22.3518 22.331C21.7263 22.9555 20.8779 23.3063 19.9932 23.3063Z" fill="white"/>
<defs>
<linearGradient id="paint0_linear" x1="8" y1="35.7843" x2="32" y2="4.28427" gradientUnits="userSpaceOnUse">
<stop stop-color="#F50000"/>
<stop offset="0.484375" stop-color="#B900B4"/>
<stop offset="1" stop-color="#1400C8"/>
</linearGradient>
</defs>
</svg>
