<svg width="40" height="40" viewBox="0 0 40 40" fill="none" xmlns="http://www.w3.org/2000/svg">
<circle cx="20" cy="20" r="20" fill="#FEE500"/>
<path fill-rule="evenodd" clip-rule="evenodd" d="M15.1146 24.6847C14.4801 24.2454 13.8579 23.8824 13.317 23.4279C11.8075 22.1584 10.9209 20.5827 11.0056 18.5832C11.0672 17.1318 11.6831 15.9075 12.6851 14.8611C14.1178 13.3646 15.921 12.5304 17.964 12.1851C20.6719 11.7277 23.2447 12.0998 25.62 13.5031C26.4542 13.9959 27.1726 14.6218 27.7614 15.3825C29.4365 17.5465 29.4139 20.2797 27.6853 22.4086C26.3766 24.0205 24.6191 24.9364 22.6006 25.4021C21.3829 25.6834 20.1436 25.8175 18.8906 25.6299C18.5417 25.5778 18.2499 25.6621 17.9555 25.8602C17.0021 26.502 16.0327 27.1221 15.0645 27.7436C14.8963 27.8521 14.7059 27.9277 14.5618 28C14.2459 27.8471 14.2912 27.6619 14.3528 27.4468C14.6153 26.5262 14.8629 25.602 15.1146 24.6847" fill="#181600"/>
</svg>
