<svg width="40" height="40" viewBox="0 0 40 40" fill="none" xmlns="http://www.w3.org/2000/svg">
<circle cx="20" cy="20" r="20" fill="#FF0000"/>
<path d="M30.5418 24.8137C30.2883 25.6747 29.544 26.3514 28.5968 26.5818C26.88 27 20 27 20 27C20 27 13.12 27 11.405 26.5818C10.4579 26.3514 9.71353 25.6747 9.45999 24.8137C9 23.2547 9 20 9 20C9 20 9 16.7453 9.45999 15.1863C9.71353 14.3253 10.4579 13.6486 11.405 13.4182C13.12 13 20 13 20 13C20 13 26.88 13 28.595 13.4182C29.5421 13.6486 30.2865 14.3253 30.54 15.1863C31 16.7453 31 20 31 20C31 20 31 23.2547 30.5418 24.8137Z" fill="white"/>
<path d="M17.7996 17.0005L23.5169 20L17.7996 22.9995V17.0005Z" fill="#FF0000"/>
</svg>
