<?xml version="1.0" encoding="utf-8"?>
<!-- Generator: Adobe Illustrator 24.0.1, SVG Export Plug-In . SVG Version: 6.00 Build 0) -->
<svg version="1.1" id="Layer_1" xmlns="http://www.w3.org/2000/svg" xmlns:xlink="http://www.w3.org/1999/xlink" x="0px" y="0px"
	 viewBox="0 0 90 42" style="enable-background:new 0 0 90 42;" xml:space="preserve">
<style type="text/css">
	.st0{fill:#FFFFFF;}
</style>
<g>
	<g>
		<path class="st0" d="M3.8,32.08c2.9,0,4.92,1.77,4.92,4.51c0,2.75-2.02,4.53-4.92,4.53H0v-9.04H3.8z M3.8,38.76
			c1.26,0,2.19-0.9,2.19-2.17c0-1.25-0.93-2.14-2.19-2.14H2.67v4.31H3.8z"/>
		<path class="st0" d="M15.07,35.09l-2.19,6.04h-2.86l3.75-9.1h2.62l3.75,9.1h-2.85L15.07,35.09z"/>
		<path class="st0" d="M53,35.09l-2.2,6.04h-2.86l3.75-9.1h2.62l3.75,9.1h-2.84L53,35.09z"/>
		<path class="st0" d="M84.93,35.09l-2.19,6.04h-2.86l3.75-9.1h2.62l3.75,9.1h-2.85L84.93,35.09z"/>
		<path class="st0" d="M29.45,41.13h-6.97v-9.04h2.67v6.73h4.3V41.13z"/>
		<path class="st0" d="M34.61,41.13h-2.67v-9.04h2.67V41.13z"/>
		<path class="st0" d="M46.09,34.96h-2.7c-0.12-0.53-0.43-1.05-1.21-1.05c-0.58,0-0.97,0.25-0.97,0.66c0,0.4,0.27,0.56,0.83,0.69
			l1.49,0.36c1.53,0.37,2.65,1.06,2.65,2.69c0,1.87-1.54,3.02-3.96,3.02c-1.82,0-3.95-0.76-4.23-3.29h2.74
			c0.13,0.67,0.66,1.09,1.53,1.09c0.61,0,0.97-0.25,0.97-0.63c0-0.25-0.11-0.51-0.71-0.64L41,37.51c-1.78-0.41-2.65-1.14-2.65-2.59
			c0-1.92,1.53-3.03,3.72-3.03C43.5,31.88,45.85,32.39,46.09,34.96z"/>
		<path class="st0" d="M67.38,41.13h-6.97v-9.04h2.67v6.73h4.3V41.13z"/>
		<path class="st0" d="M73.67,32.08c2.9,0,4.92,1.77,4.92,4.51c0,2.75-2.02,4.53-4.92,4.53h-3.8v-9.04H73.67z M73.67,38.76
			c1.26,0,2.19-0.9,2.19-2.17c0-1.25-0.93-2.14-2.19-2.14h-1.13v4.31H73.67z"/>
	</g>
	<g>
		<path class="st0" d="M50.35,0.67L40.11,0.69l0.01,4.53c-1.33-0.5-2.76-0.75-4.27-0.75c-6.84,0.01-12.99,5.4-15.67,8.42
			c2.7,3.02,8.86,8.39,15.7,8.37c1.51,0,2.94-0.26,4.27-0.76l0.01,4.53l10.24-0.02c7.81-0.01,13.24-4.82,13.23-12.23
			C63.61,5.42,58.16,0.66,50.35,0.67z M34.36,5.77l6.51,6.49l-6.21,0.01L29.58,7.2C31.19,6.45,32.8,5.96,34.36,5.77z M28.45,7.77
			l4.52,4.5L22.45,12.3C24.41,10.39,26.43,8.87,28.45,7.77z M22.45,13.5l6.56-0.01l-2.98,2.99C24.82,15.63,23.62,14.63,22.45,13.5z
			 M27.04,17.16l3.67-3.68l6.21-0.01l-5.73,5.75C29.82,18.74,28.43,18.05,27.04,17.16z M35.87,20.07L35.87,20.07
			c-1.1,0-2.23-0.15-3.38-0.45l6.13-6.15l7.51-0.01C43.66,17.78,40.13,20.07,35.87,20.07z M42.58,12.26l-6.6-6.58
			c4.2,0.04,7.69,2.3,10.16,6.58L42.58,12.26z M50.38,18.65l-3.04,0l-0.02-11.6l3.04,0c3.4-0.01,5.91,2.39,5.92,5.76
			C56.28,16.21,53.78,18.65,50.38,18.65z"/>
	</g>
</g>
</svg>
