<?xml version="1.0" encoding="utf-8"?>
<!-- Generator: Adobe Illustrator 24.0.1, SVG Export Plug-In . SVG Version: 6.00 Build 0)  -->
<svg version="1.1" id="Layer_1" xmlns="http://www.w3.org/2000/svg" xmlns:xlink="http://www.w3.org/1999/xlink" x="0px" y="0px"
	 viewBox="0 0 108 33" style="enable-background:new 0 0 108 33;" xml:space="preserve">
<style type="text/css">
	.st0{fill:#FFFFFF;}
</style>
<g>
	<g>
		<g>
			<path class="st0" d="M32.64,12.06h-7.57c-0.58,0-1.05,0.47-1.05,1.05c0,0.58,0.47,1.05,1.05,1.05h7.57
				c0.58,0,1.05-0.47,1.05-1.05C33.69,12.53,33.22,12.06,32.64,12.06z"/>
			<path class="st0" d="M25.07,16.4c-0.58,0-1.05,0.47-1.05,1.05s0.47,1.05,1.05,1.05h5.53c0.58,0,1.05-0.47,1.05-1.05
				s-0.47-1.05-1.05-1.05H25.07z"/>
			<path class="st0" d="M35.18,7.73h-4.75c-2.92-4.63-8.07-7.71-13.95-7.71C7.38,0.02,0,7.4,0,16.5s7.38,16.48,16.48,16.48
				c6.89,0,12.78-4.23,15.25-10.22h-3.44c0.01,0.08,0.02,0.16,0.02,0.24c0,1.23-1,2.23-2.24,2.23s-2.24-1-2.24-2.23
				c0-0.08,0.02-0.16,0.02-0.24h-8.33c0.01,0.08,0.02,0.16,0.02,0.24c0,1.24-1.01,2.24-2.25,2.24c-1.24,0-2.25-1-2.25-2.24
				c0-0.08,0.02-0.16,0.02-0.24h-0.03H10.1c-0.53,0-0.97-0.43-0.97-0.97v-3.4c0-0.71,0.42-1.07,0.97-1.07h0.48l1.65-3.05
				c0.18-0.26,0.48-0.42,0.8-0.42l3.36,0V10.6c0-0.43,0.35-0.78,0.78-0.78c0,0,7.9,0,7.91,0h10.11c0.58,0,1.05-0.47,1.05-1.05
				S35.76,7.73,35.18,7.73z M9.79,9.93l-0.94,0.92c-0.03,0.03-0.05,0.08-0.04,0.13l0.22,1.3c0.02,0.12-0.1,0.21-0.21,0.15
				l-1.16-0.61c-0.04-0.02-0.09-0.02-0.13,0l-1.16,0.61c-0.1,0.06-0.23-0.03-0.21-0.15l0.22-1.3c0.01-0.05-0.01-0.09-0.04-0.13
				L5.39,9.93C5.31,9.85,5.35,9.71,5.47,9.69l1.3-0.19c0.05-0.01,0.09-0.04,0.11-0.08l0.58-1.18c0.05-0.11,0.2-0.11,0.26,0L8.3,9.42
				C8.32,9.46,8.36,9.49,8.41,9.5l1.3,0.19C9.83,9.71,9.88,9.85,9.79,9.93z M14.36,5.68L13.62,6.4c-0.03,0.03-0.05,0.08-0.04,0.13
				l0.17,1.02c0.02,0.12-0.1,0.21-0.21,0.15l-0.92-0.48c-0.04-0.02-0.09-0.02-0.13,0L11.58,7.7c-0.1,0.06-0.23-0.03-0.21-0.15
				l0.17-1.02c0.01-0.05-0.01-0.09-0.04-0.13l-0.74-0.72c-0.09-0.08-0.04-0.23,0.08-0.24l1.02-0.15c0.05-0.01,0.09-0.04,0.11-0.08
				l0.46-0.93c0.05-0.11,0.2-0.11,0.26,0l0.46,0.93c0.02,0.04,0.06,0.07,0.11,0.08l1.02,0.15C14.4,5.45,14.45,5.6,14.36,5.68z"/>
		</g>
	</g>
	<g>
		<g>
			<polygon class="st0" points="57.2,20.63 67.34,20.63 66.42,25.84 69.12,25.84 70.44,18.3 57.61,18.3 			"/>
			<path class="st0" d="M69.9,6.46l-0.44,2.49h-3.28l0.37-2.08h-2.59l-1.35,7.65h-4.45l0.31-1.77h0.89c0.67,0,1.31-0.07,1.9-0.2
				c0.6-0.13,0.97-0.24,1.15-0.32c0.17-0.08,0.3-0.14,0.4-0.2L62.85,12l0.39-2.19l-0.56,0.24c-0.22,0.09-0.6,0.19-1.14,0.28
				c-0.55,0.1-1.16,0.14-1.83,0.14h-0.84l0.63-3.59h-2.57l-1.35,7.63c-0.06,0.36,0.01,0.67,0.22,0.92l0.86,1.07
				c0.19,0.21,0.43,0.31,0.74,0.31h7.4l0.39-2.22h3.29l-0.45,2.53h2.64l1.88-10.65H69.9z M69.06,11.21l-0.2,1.11h-3.28l0.2-1.11
				H69.06z"/>
		</g>
		<g>
			<path class="st0" d="M46.39,18.84c-0.45-0.42-0.81-0.78-1.04-1.07c-0.33-0.42-0.67-0.98-1-1.66c-0.35-0.74-0.53-1.68-0.52-2.81
				c0.01-1.06,0.09-2.04,0.25-2.93l0.58-3.29h-2.7l-0.57,3.25c-0.16,0.93-0.37,1.79-0.62,2.56c-0.25,0.79-0.67,1.66-1.26,2.59
				c-0.51,0.79-1.15,1.59-1.9,2.37c-0.56,0.58-1.28,1.19-2.13,1.79l-0.14,0.1l2.03,1.56l0.08-0.06c0.48-0.38,0.93-0.75,1.31-1.11
				c0.39-0.36,0.81-0.8,1.24-1.3c0.46-0.53,0.83-0.97,1.07-1.29c0.18-0.24,0.36-0.51,0.51-0.79c0.08,0.28,0.18,0.52,0.27,0.74
				c0.13,0.3,0.31,0.63,0.52,0.99c0.28,0.48,0.58,0.89,0.88,1.23c0.31,0.35,0.64,0.69,0.97,1l0.09,0.08l2.16-1.86L46.39,18.84z"/>
			<polygon class="st0" points="52.83,6.46 52.17,10.2 51.09,10.2 51.72,6.67 49.06,6.67 45.82,25.01 48.48,25.01 50.66,12.67 
				51.74,12.67 49.49,25.43 52.15,25.43 55.49,6.46 			"/>
		</g>
		<g>
			<path class="st0" d="M80.09,7.29L78.1,18.58h-3.35l0.66-3.75c0.6-0.02,1.18-0.09,1.72-0.21c0.58-0.13,0.94-0.23,1.11-0.31
				c0.16-0.08,0.29-0.15,0.38-0.21l0.05-0.03l0.39-2.19l-0.55,0.25c-0.2,0.09-0.57,0.19-1.09,0.28c-0.48,0.09-1.02,0.14-1.6,0.14
				l0.93-5.26h-2.57l-1.99,11.27c-0.06,0.36,0.01,0.67,0.22,0.92l0.85,1.06c0.17,0.21,0.42,0.32,0.74,0.32h6.28l2.39-13.56H80.09z"
				/>
			<polygon class="st0" points="88.02,6.46 87.37,10.2 86.28,10.2 86.91,6.67 84.25,6.67 81.01,25.01 83.67,25.01 85.85,12.67 
				86.93,12.67 84.68,25.43 87.34,25.43 88.94,16.36 90.68,6.46 			"/>
		</g>
		<g>
			<path class="st0" d="M92.53,14.2c0.33-0.07,0.89-0.21,1.67-0.42c0.78-0.21,1.59-0.53,2.41-0.95c0.66-0.35,1.32-0.76,1.97-1.21
				c0.51-0.36,0.9-0.7,1.15-1c0.16,0.3,0.42,0.63,0.8,0.99c0.47,0.43,0.99,0.84,1.57,1.22c0.66,0.43,1.35,0.75,2.05,0.95
				c0.71,0.21,1.23,0.35,1.53,0.42l0.07,0.02l1.92-1.87l-0.25-0.05c-0.45-0.08-1.05-0.27-1.78-0.55c-0.74-0.29-1.47-0.67-2.17-1.13
				c-0.62-0.43-1.08-0.93-1.37-1.49c-0.33-0.66-0.46-1.25-0.37-1.75l0.16-0.92h-2.89l-0.15,0.88c-0.09,0.5-0.42,1.09-1,1.77
				c-0.48,0.57-1.12,1.07-1.92,1.51c-0.86,0.46-1.73,0.85-2.57,1.13c-0.84,0.29-1.51,0.47-1.99,0.55l-0.2,0.03l1.27,1.88L92.53,14.2
				z"/>
			<path class="st0" d="M103.17,19.19c-1.06-0.73-2.67-1.09-4.8-1.09c-2.13,0-3.86,0.37-5.16,1.09c-1.31,0.73-2.08,1.69-2.29,2.85
				c-0.21,1.2,0.22,2.18,1.27,2.92c1.05,0.73,2.68,1.1,4.83,1.1c2.16,0,3.91-0.37,5.2-1.1c1.29-0.72,2.05-1.69,2.26-2.88
				C104.69,20.9,104.25,19.93,103.17,19.19z M101.84,22.01c-0.11,0.63-0.55,1.08-1.33,1.35c-0.91,0.31-1.97,0.47-3.15,0.47
				c-1.18,0-2.17-0.16-2.95-0.47c-0.66-0.27-0.93-0.69-0.83-1.31c0.1-0.54,0.55-0.96,1.36-1.25c0.9-0.31,1.93-0.47,3.08-0.47
				c1.15,0,2.14,0.16,2.93,0.47C101.64,21.08,101.93,21.48,101.84,22.01z"/>
			<polygon class="st0" points="100.21,15.08 100.59,12.9 98.04,12.9 97.65,15.08 90.07,15.08 89.66,17.43 107.59,17.43 108,15.08 
							"/>
		</g>
	</g>
</g>
</svg>
