<?xml version="1.0" encoding="utf-8"?>
<!-- Generator: Adobe Illustrator 24.0.1, SVG Export Plug-In . SVG Version: 6.00 Build 0)  -->
<svg version="1.1" id="Layer_1" xmlns="http://www.w3.org/2000/svg" xmlns:xlink="http://www.w3.org/1999/xlink" x="0px" y="0px"
	 viewBox="0 0 146 20" style="enable-background:new 0 0 146 20;" xml:space="preserve">
<style type="text/css">
	.st0{fill:#FFFFFF;}
</style>
<g>
	<path class="st0" d="M9.49,12.46h3.05v3.13c-0.71,0.39-1.4,0.56-2.37,0.56c-3.03,0-4.56-2.32-4.56-5.63c0-3.29,1.47-5.53,4.51-5.53
		c1.81,0,3.36,0.66,4.69,1.5l0.59-3.79c-1.4-0.79-3.21-1.3-5.38-1.3c-5.43,0-8.77,3.69-8.77,9.15c0,5.43,3.08,9.1,8.66,9.1
		c2.42,0,4.59-0.66,6.42-1.86V9.22H8.97L9.49,12.46z"/>
	<path class="st0" d="M25.42,8.46c-2.22-0.85-2.72-1.29-2.72-2.2c0-0.83,0.65-1.39,2-1.39c1.37,0,3.05,0.51,4.65,1.44l0.67-3.72
		c-1.55-0.75-3.05-1.19-5.38-1.19c-3.41,0-6.1,1.83-6.1,5.27c0,2.95,1.55,4.11,5.12,5.48c2.51,0.96,3.02,1.43,3.02,2.43
		c0,1.06-0.88,1.6-2.15,1.6c-1.78,0-3.82-0.67-5.66-1.65l-0.64,3.77c1.81,0.83,3.83,1.34,6.23,1.34c3.54,0,6.38-1.7,6.38-5.58
		C30.84,11.23,29.29,9.88,25.42,8.46z"/>
	<path class="st0" d="M36,1.41h13.48v3.68h-9.37v3.7h8.04v3.68h-8.04v7.18H36V1.41z"/>
	<path class="st0" d="M50.05,7.6h2.82l0.55,2.1c0.75-1.69,1.85-2.43,3.4-2.43c0.3,0,0.61,0.03,0.88,0.08v3.98
		c-0.36-0.05-0.69-0.08-0.97-0.08c-1.44,0-2.37,0.66-2.82,1.96v6.44h-3.87V7.6z"/>
	<path class="st0" d="M66.17,16.8c1.44,0,2.65-0.39,3.92-1.35v3.37c-1.33,0.77-2.62,1.13-4.34,1.13c-4.45,0-7.16-2.4-7.16-6.44
		c0-3.81,2.46-6.27,6.27-6.27c3.68,0,5.91,2.24,5.91,5.72c0,0.55-0.05,1.1-0.17,1.85h-7.93C63.07,16.11,64.26,16.8,66.17,16.8z
		 M62.63,12.3h4.64c-0.28-1.27-1.08-1.91-2.32-1.91C63.71,10.4,62.91,11.06,62.63,12.3z"/>
	<path class="st0" d="M72,18.95v-3.29c1.16,0.86,2.74,1.33,4.61,1.33c1.3,0,1.85-0.22,1.85-0.83c0-0.47-0.39-0.69-1.49-0.88
		L75.43,15c-2.51-0.44-3.45-1.71-3.45-3.65c0-2.71,1.82-4.09,5.33-4.09c1.66,0,3.18,0.3,4.12,0.88v3.26
		c-1.16-0.75-2.54-1.16-4.06-1.16c-1.19,0-1.66,0.25-1.66,0.8c0,0.5,0.41,0.66,1.49,0.86l1.55,0.28c2.29,0.41,3.45,1.55,3.45,3.73
		c0,2.71-1.82,4.06-5.55,4.06C74.74,19.98,73.05,19.62,72,18.95z"/>
	<path class="st0" d="M84.13,0.03H88v8.7c0.86-0.99,1.93-1.46,3.34-1.46c2.62,0,4.06,1.66,4.06,4.81v7.57h-3.87v-6.96
		c0-1.21-0.5-1.82-1.52-1.82c-0.91,0-1.57,0.53-2.02,1.49v7.29h-3.87V0.03z"/>
	<path class="st0" d="M101.04,1.41h1.58l7.76,12.52l7.76-12.52h1.6v18.23h-1.6V4.26l-7.29,11.85h-0.94l-7.32-11.85v15.39h-1.55V1.41
		z"/>
	<path class="st0" d="M121.75,16.27c0-2.38,1.71-3.81,4.64-3.81c1.33,0,2.76,0.3,4.06,0.94v-0.83c0-2.49-1.16-3.68-3.59-3.68
		c-1.63,0-3.07,0.55-4.09,1.6v-1.6c1.02-0.91,2.54-1.38,4.29-1.38c3.23,0,4.95,1.66,4.95,4.86v7.27h-1.22l-0.22-1.88
		c-1.13,1.46-2.71,2.21-4.59,2.21C123.35,19.98,121.75,18.57,121.75,16.27z M130.46,16.14v-1.41c-1.13-0.58-2.52-0.91-3.87-0.91
		c-2.16,0-3.29,0.83-3.29,2.4c0,1.49,1.05,2.38,2.93,2.38C128.03,18.6,129.35,17.8,130.46,16.14z"/>
	<path class="st0" d="M134.85,0.02h1.55v19.63h-1.55V0.02z"/>
	<path class="st0" d="M139.23,0.02h1.55v19.63h-1.55V0.02z"/>
	<path class="st0" d="M142.76,18.4c0-0.72,0.53-1.24,1.24-1.24c0.72,0,1.24,0.52,1.24,1.24c0,0.72-0.52,1.24-1.24,1.24
		C143.29,19.65,142.76,19.12,142.76,18.4z"/>
</g>
</svg>
