<?xml version="1.0" encoding="utf-8"?>
<!-- Generator: Adobe Illustrator 24.0.1, SVG Export Plug-In . SVG Version: 6.00 Build 0)  -->
<svg version="1.1" id="Layer_1" xmlns="http://www.w3.org/2000/svg" xmlns:xlink="http://www.w3.org/1999/xlink" x="0px" y="0px"
	 viewBox="0 0 57 55" style="enable-background:new 0 0 57 55;" xml:space="preserve">
<style type="text/css">
	.st0{fill:#FFFFFF;}
</style>
<g>
	<path class="st0" d="M30.4,43.24H10.11V15.38c0-5-0.99-8.9-2.93-11.6C5.57,1.54,3.3,0.25,0.95,0.25C0.42,0.25,0,0.68,0,1.2
		s0.42,0.95,0.95,0.95c3.62,0,7.27,4.09,7.27,13.23v28.75c0,0.08,0.01,0.16,0.03,0.23c0.56,5.83,5.48,10.39,11.45,10.39
		c6.08,0,11.07-4.72,11.48-10.7C31.21,43.6,30.85,43.24,30.4,43.24z"/>
	<g>
		<g>
			<path class="st0" d="M22.74,23.81c0,1.4-1.13,2.17-2.98,2.17c-2.23,0-3.14-0.99-3.25-2.34h0.89c0.06,1.09,1.11,1.53,2.42,1.53
				c1.27,0,2.07-0.44,2.07-1.33c0-1.84-5.15-0.91-5.15-3.49c0-1.23,0.94-2.08,2.83-2.08c2,0,2.91,1.02,2.98,2.15h-0.87
				c-0.09-0.75-0.73-1.35-2.1-1.35c-1.7,0-2,0.77-2,1.27C17.57,22.1,22.74,21.19,22.74,23.81z"/>
			<path class="st0" d="M25.48,25.89h-0.85v-7.52h0.85V25.89z"/>
			<path class="st0" d="M35.21,18.37v7.52h-0.85v-6.23l-2.78,3.58l-2.83-3.58v6.23h-0.85v-7.52h0.99l2.69,3.57l2.65-3.57H35.21z"/>
			<path class="st0" d="M38.47,25.89h-0.85v-7.52H41c1.6,0,2.59,0.94,2.59,2.42c0,1.49-0.99,2.42-2.59,2.42h-2.53V25.89z
				 M38.47,19.18v3.24h2.48c1.18,0,1.8-0.61,1.8-1.63c0-1-0.61-1.61-1.8-1.61H38.47z"/>
			<path class="st0" d="M46.17,18.37v6.71h4.1v0.82h-4.95v-7.52H46.17z"/>
			<path class="st0" d="M53.85,25.89H53v-2.98l-3.16-4.55h1.03l2.55,3.66l2.55-3.66H57l-3.15,4.55V25.89z"/>
		</g>
		<g>
			<path class="st0" d="M22.66,33.8h0.9c-0.48,1.38-1.7,2.34-3.41,2.34c-2.26,0-3.64-1.72-3.64-3.85c0-2.14,1.38-3.85,3.64-3.85
				c1.7,0,2.93,0.97,3.41,2.34h-0.9c-0.39-0.92-1.2-1.51-2.44-1.51c-1.83,0-2.85,1.33-2.85,3.02c0,1.69,1.02,3.02,2.85,3.02
				C21.46,35.31,22.28,34.72,22.66,33.8z"/>
			<path class="st0" d="M32.5,32.29c0,2.14-1.53,3.85-3.82,3.85c-2.28,0-3.82-1.72-3.82-3.85c0-2.14,1.53-3.85,3.82-3.85
				C30.97,28.44,32.5,30.15,32.5,32.29z M31.65,32.29c0-1.69-1.14-3.02-2.97-3.02s-2.97,1.33-2.97,3.02c0,1.69,1.14,3.02,2.97,3.02
				S31.65,33.98,31.65,32.29z"/>
			<path class="st0" d="M41.59,32.29c0,2.14-1.53,3.85-3.82,3.85c-2.28,0-3.82-1.72-3.82-3.85c0-2.14,1.53-3.85,3.82-3.85
				C40.06,28.44,41.59,30.15,41.59,32.29z M40.74,32.29c0-1.69-1.14-3.02-2.97-3.02c-1.83,0-2.97,1.33-2.97,3.02
				c0,1.69,1.14,3.02,2.97,3.02C39.6,35.31,40.74,33.98,40.74,32.29z"/>
			<path class="st0" d="M46.56,31.55l3.39,4.5h-1.07l-2.94-3.92l-1.56,1.45v2.47h-0.85v-7.52h0.85v3.92l4.18-3.92h1.2L46.56,31.55z"
				/>
		</g>
	</g>
</g>
</svg>
