<?xml version="1.0" encoding="utf-8"?>
<!-- Generator: Adobe Illustrator 24.0.1, SVG Export Plug-In . SVG Version: 6.00 Build 0)  -->
<svg version="1.1" id="Layer_1" xmlns="http://www.w3.org/2000/svg" xmlns:xlink="http://www.w3.org/1999/xlink" x="0px" y="0px"
	 viewBox="0 0 101 25" style="enable-background:new 0 0 101 25;" xml:space="preserve">
<style type="text/css">
	.st0{fill:#FFFFFF;}
</style>
<g>
	<rect x="29.43" class="st0" width="4.14" height="24.48"/>
	<path class="st0" d="M49.6,10.59c-1.15-1.77-3.5-2.31-4.92-2.31c-4.18,0-8.08,3.16-8.08,8.25c0,5.06,3.91,8.25,8.08,8.25
		c1.56,0,3.91-0.71,4.92-2.34v2.04h4.14V8.63H49.6V10.59z M45.25,20.81c-2.28,0-4.38-1.73-4.38-4.28c0-2.58,2.11-4.28,4.38-4.28
		c2.17,0,4.35,1.53,4.35,4.28C49.6,19.25,47.49,20.81,45.25,20.81z"/>
	<rect x="0.74" class="st0" width="4.14" height="24.48"/>
	<path class="st0" d="M20.91,10.59c-1.15-1.77-3.5-2.31-4.92-2.31c-4.18,0-8.08,3.16-8.08,8.25c0,5.06,3.91,8.25,8.08,8.25
		c1.56,0,3.9-0.71,4.92-2.34v2.04h4.14V8.63h-4.14V10.59z M16.56,20.81c-2.28,0-4.38-1.73-4.38-4.28c0-2.58,2.1-4.28,4.38-4.28
		c2.17,0,4.35,1.53,4.35,4.28C20.91,19.25,18.8,20.81,16.56,20.81z"/>
	<rect x="75.95" class="st0" width="4.14" height="24.48"/>
	<path class="st0" d="M96.12,8.63v1.97c-1.15-1.77-3.5-2.31-4.92-2.31c-4.18,0-8.08,3.16-8.08,8.25c0,5.06,3.91,8.25,8.08,8.25
		c1.56,0,3.9-0.71,4.92-2.34v2.04h4.14V8.63H96.12z M91.77,20.81c-2.28,0-4.38-1.73-4.38-4.28c0-2.58,2.1-4.28,4.38-4.28
		c2.17,0,4.35,1.53,4.35,4.28C96.12,19.25,94.01,20.81,91.77,20.81z"/>
	<path class="st0" d="M71.55,8.73c-1.7-0.98-3.87-0.4-4.86,1.29l-2,3.46l-2-3.46c-0.98-1.7-3.16-2.28-4.86-1.3
		c-1.7,0.98-2.28,3.16-1.3,4.86l5.84,10.08c0.46,0.8,1.32,1.33,2.31,1.33c0.98,0,1.84-0.53,2.31-1.33l5.85-10.08
		C73.83,11.89,73.25,9.72,71.55,8.73z"/>
</g>
</svg>
